<?xml version="1.0" encoding="utf-8"?>
<!-- Generator: Adobe Illustrator 17.0.0, SVG Export Plug-In . SVG Version: 6.00 Build 0)  -->
<!DOCTYPE svg PUBLIC "-//W3C//DTD SVG 1.1//EN" "http://www.w3.org/Graphics/SVG/1.1/DTD/svg11.dtd">
<svg version="1.1" id="logo-vof" xmlns="http://www.w3.org/2000/svg" xmlns:xlink="http://www.w3.org/1999/xlink" x="0px" y="0px"
	 width="1529.914px" height="472.851px" viewBox="-20 527.392 1529.914 472.851"
	 style="enable-background:new -20 527.392 1529.914 472.851;" xml:space="preserve">
<polygon id="logo-vof-v3" style="fill:#F4F4F4;" points="417.912,528 217.336,848.439 293.927,1000.012 316.987,999.994 502.824,704.072 "/>
<g id="logo-vof-text">
	<path style="fill:#F9F9F9;" d="M761.635,850.447c0,97.804-59.441,149.657-131.951,149.657c-75.04,0-127.735-58.177-127.735-144.178
		c0-90.216,56.068-149.235,131.951-149.235C711.468,706.691,761.635,766.133,761.635,850.447z M541.154,855.084
		c0,60.706,32.883,115.089,90.638,115.089c58.177,0,91.059-53.54,91.059-118.04c0-56.49-29.51-115.51-90.638-115.51
		C571.507,736.623,541.154,792.691,541.154,855.084z"/>
	<path style="fill:#F9F9F9;" d="M1070.221,732.407c-9.274-5.902-24.451-10.961-41.314-10.961c-39.205,0-51.01,27.402-51.01,59.863
		v10.117h118.883v204.04h-37.098V819.672h-81.363v175.795H941.22V819.672h-86v175.795h-36.677V819.672h-28.666v-28.245h28.666
		v-7.588c0-25.716,6.745-50.589,24.451-67.873c11.805-12.226,29.51-19.813,52.275-19.813c13.911,0,28.245,5.059,35.833,8.853
		l-10.118,27.402c-6.323-3.372-16.02-7.167-25.715-7.167c-11.805,0-20.236,4.216-26.56,10.961
		c-10.117,10.961-13.49,29.51-13.49,47.216v8.01h86v-10.961c0-53.961,32.04-88.951,89.373-88.951
		c18.549,0,39.628,5.48,50.589,13.069L1070.221,732.407z"/>
	<path style="fill:#F9F9F9;" d="M1303.766,987.879c-9.695,5.059-31.195,11.804-58.598,11.804
		c-61.55,0-101.599-41.735-101.599-104.128c0-62.813,43-108.344,109.608-108.344c21.922,0,41.313,5.48,51.432,10.54l-8.432,28.666
		c-8.853-5.059-22.765-9.696-43-9.696c-46.794,0-72.089,34.569-72.089,77.147c0,47.216,30.354,76.305,70.824,76.305
		c21.078,0,34.99-5.48,45.529-10.118L1303.766,987.879z"/>
	<path style="fill:#F9F9F9;" d="M1365.317,900.192c0.843,50.166,32.882,70.823,69.98,70.823c26.559,0,42.578-4.637,56.49-10.539
		l6.323,26.559c-13.068,5.902-35.411,12.647-67.872,12.647c-62.814,0-100.334-41.313-100.334-102.863
		c0-61.549,36.255-110.029,95.696-110.029c66.608,0,84.314,58.598,84.314,96.117c0,7.589-0.844,13.49-1.265,17.285H1365.317z
		 M1474.082,873.633c0.422-23.607-9.696-60.284-51.432-60.284c-37.52,0-53.961,34.568-56.911,60.284H1474.082z"/>
</g>
<polygon id="logo-vof-v2" style="fill:#F9F9F9;" points="153.758,703.408 -20,703.719 122.961,1000.243 293.932,1000.016 "/>
<polygon id="logo-vof-v1" style="fill:#FFFFFF;" points="-20,703.719 70.098,527.457 151.666,527.392 237.501,703.71 "/>
</svg>
